<svg id="Layer_1" height="109" viewBox="0 0 512 512" width="100" xmlns="http://www.w3.org/2000/svg" data-name="Layer 1"><path d="m260.112 21.757a6 6 0 0 0 -4.242-1.757h-.014a6 6 0 0 0 -4.248 1.776l-172.268 173.806a128.028 128.028 0 0 0 162.792 196.206l-38.965 91.869a6 6 0 0 0 7.752 7.914 120.871 120.871 0 0 1 90.163 0 6 6 0 0 0 7.751-7.914l-39.749-93.718a128.026 128.026 0 0 0 163.591-14.608c49.9-49.9 49.9-131.109 0-181.029zm-40.655 454.225 36.543-86.159 36.543 86.159a132.571 132.571 0 0 0 -73.086 0zm204.733-109.135a115.977 115.977 0 0 1 -162.766 1.263 6 6 0 0 0 -3.938-1.69l-1.119-.045a6.057 6.057 0 0 0 -4.485 1.753 116.008 116.008 0 1 1 -164.04-164.079l168.047-169.549 168.3 168.283a116.154 116.154 0 0 1 .001 164.064z"/></svg>